<mxfile host="app.diagrams.net" agent="Mozilla/5.0 (Windows NT 10.0; Win64; x64) AppleWebKit/537.36 (KHTML, like Gecko) Chrome/135.0.0.0 Safari/537.36" version="26.2.12">
  <diagram name="Page-1" id="EYV2EN1rzpi6UnxxphIq">
    <mxGraphModel dx="1044" dy="527" grid="1" gridSize="10" guides="1" tooltips="1" connect="1" arrows="1" fold="1" page="1" pageScale="1" pageWidth="827" pageHeight="1169" math="0" shadow="0">
      <root>
        <mxCell id="0" />
        <mxCell id="1" parent="0" />
        <mxCell id="jQ1ti13gLWVN2hdbeHUx-1" value="&lt;font style=&quot;color: rgb(0, 0, 0);&quot;&gt;&lt;b style=&quot;&quot;&gt;PAYS&lt;/b&gt;&lt;/font&gt;" style="swimlane;fontStyle=0;childLayout=stackLayout;horizontal=1;startSize=30;horizontalStack=0;resizeParent=1;resizeParentMax=0;resizeLast=0;collapsible=1;marginBottom=0;whiteSpace=wrap;html=1;" parent="1" vertex="1">
          <mxGeometry x="390" y="10" width="140" height="210" as="geometry">
            <mxRectangle x="320" y="70" width="70" height="30" as="alternateBounds" />
          </mxGeometry>
        </mxCell>
        <mxCell id="jQ1ti13gLWVN2hdbeHUx-2" value="+nomPays" style="text;strokeColor=none;fillColor=none;align=left;verticalAlign=middle;spacingLeft=4;spacingRight=4;overflow=hidden;points=[[0,0.5],[1,0.5]];portConstraint=eastwest;rotatable=0;whiteSpace=wrap;html=1;" parent="jQ1ti13gLWVN2hdbeHUx-1" vertex="1">
          <mxGeometry y="30" width="140" height="30" as="geometry" />
        </mxCell>
        <mxCell id="jQ1ti13gLWVN2hdbeHUx-3" value="+capitale" style="text;strokeColor=none;fillColor=none;align=left;verticalAlign=middle;spacingLeft=4;spacingRight=4;overflow=hidden;points=[[0,0.5],[1,0.5]];portConstraint=eastwest;rotatable=0;whiteSpace=wrap;html=1;" parent="jQ1ti13gLWVN2hdbeHUx-1" vertex="1">
          <mxGeometry y="60" width="140" height="30" as="geometry" />
        </mxCell>
        <mxCell id="jQ1ti13gLWVN2hdbeHUx-4" value="+climatPays" style="text;strokeColor=none;fillColor=none;align=left;verticalAlign=middle;spacingLeft=4;spacingRight=4;overflow=hidden;points=[[0,0.5],[1,0.5]];portConstraint=eastwest;rotatable=0;whiteSpace=wrap;html=1;" parent="jQ1ti13gLWVN2hdbeHUx-1" vertex="1">
          <mxGeometry y="90" width="140" height="30" as="geometry" />
        </mxCell>
        <mxCell id="jQ1ti13gLWVN2hdbeHUx-12" value="#météo" style="text;strokeColor=none;fillColor=none;align=left;verticalAlign=middle;spacingLeft=4;spacingRight=4;overflow=hidden;points=[[0,0.5],[1,0.5]];portConstraint=eastwest;rotatable=0;whiteSpace=wrap;html=1;" parent="jQ1ti13gLWVN2hdbeHUx-1" vertex="1">
          <mxGeometry y="120" width="140" height="30" as="geometry" />
        </mxCell>
        <mxCell id="jQ1ti13gLWVN2hdbeHUx-10" value="--------------------------------" style="text;strokeColor=none;fillColor=none;align=left;verticalAlign=middle;spacingLeft=4;spacingRight=4;overflow=hidden;points=[[0,0.5],[1,0.5]];portConstraint=eastwest;rotatable=0;whiteSpace=wrap;html=1;" parent="jQ1ti13gLWVN2hdbeHUx-1" vertex="1">
          <mxGeometry y="150" width="140" height="30" as="geometry" />
        </mxCell>
        <mxCell id="jQ1ti13gLWVN2hdbeHUx-11" style="text;strokeColor=none;fillColor=none;align=left;verticalAlign=middle;spacingLeft=4;spacingRight=4;overflow=hidden;points=[[0,0.5],[1,0.5]];portConstraint=eastwest;rotatable=0;whiteSpace=wrap;html=1;" parent="jQ1ti13gLWVN2hdbeHUx-1" vertex="1">
          <mxGeometry y="180" width="140" height="30" as="geometry" />
        </mxCell>
        <mxCell id="jQ1ti13gLWVN2hdbeHUx-5" value="&lt;b&gt;MÉTÉO&lt;/b&gt;" style="swimlane;fontStyle=0;childLayout=stackLayout;horizontal=1;startSize=30;horizontalStack=0;resizeParent=1;resizeParentMax=0;resizeLast=0;collapsible=1;marginBottom=0;whiteSpace=wrap;html=1;" parent="1" vertex="1">
          <mxGeometry x="650" y="20" width="140" height="120" as="geometry" />
        </mxCell>
        <mxCell id="jQ1ti13gLWVN2hdbeHUx-6" value="+Température" style="text;strokeColor=none;fillColor=none;align=left;verticalAlign=middle;spacingLeft=4;spacingRight=4;overflow=hidden;points=[[0,0.5],[1,0.5]];portConstraint=eastwest;rotatable=0;whiteSpace=wrap;html=1;" parent="jQ1ti13gLWVN2hdbeHUx-5" vertex="1">
          <mxGeometry y="30" width="140" height="30" as="geometry" />
        </mxCell>
        <mxCell id="jQ1ti13gLWVN2hdbeHUx-13" value="" style="endArrow=classic;html=1;rounded=0;entryX=0.011;entryY=-0.04;entryDx=0;entryDy=0;entryPerimeter=0;" parent="jQ1ti13gLWVN2hdbeHUx-5" target="jQ1ti13gLWVN2hdbeHUx-7" edge="1">
          <mxGeometry relative="1" as="geometry">
            <mxPoint x="-120" y="60" as="sourcePoint" />
            <mxPoint x="40" y="60" as="targetPoint" />
          </mxGeometry>
        </mxCell>
        <mxCell id="jQ1ti13gLWVN2hdbeHUx-14" value="a" style="edgeLabel;resizable=0;html=1;;align=center;verticalAlign=middle;" parent="jQ1ti13gLWVN2hdbeHUx-13" connectable="0" vertex="1">
          <mxGeometry relative="1" as="geometry" />
        </mxCell>
        <mxCell id="jQ1ti13gLWVN2hdbeHUx-15" value="1..*" style="edgeLabel;resizable=0;html=1;;align=left;verticalAlign=bottom;" parent="jQ1ti13gLWVN2hdbeHUx-13" connectable="0" vertex="1">
          <mxGeometry x="-1" relative="1" as="geometry" />
        </mxCell>
        <mxCell id="jQ1ti13gLWVN2hdbeHUx-16" value="1..*" style="edgeLabel;resizable=0;html=1;;align=right;verticalAlign=bottom;" parent="jQ1ti13gLWVN2hdbeHUx-13" connectable="0" vertex="1">
          <mxGeometry x="1" relative="1" as="geometry">
            <mxPoint x="-12" as="offset" />
          </mxGeometry>
        </mxCell>
        <mxCell id="jQ1ti13gLWVN2hdbeHUx-7" value="+humidité" style="text;strokeColor=none;fillColor=none;align=left;verticalAlign=middle;spacingLeft=4;spacingRight=4;overflow=hidden;points=[[0,0.5],[1,0.5]];portConstraint=eastwest;rotatable=0;whiteSpace=wrap;html=1;" parent="jQ1ti13gLWVN2hdbeHUx-5" vertex="1">
          <mxGeometry y="60" width="140" height="30" as="geometry" />
        </mxCell>
        <mxCell id="jQ1ti13gLWVN2hdbeHUx-8" value="+vitesseDuVent" style="text;strokeColor=none;fillColor=none;align=left;verticalAlign=middle;spacingLeft=4;spacingRight=4;overflow=hidden;points=[[0,0.5],[1,0.5]];portConstraint=eastwest;rotatable=0;whiteSpace=wrap;html=1;" parent="jQ1ti13gLWVN2hdbeHUx-5" vertex="1">
          <mxGeometry y="90" width="140" height="30" as="geometry" />
        </mxCell>
        <mxCell id="jQ1ti13gLWVN2hdbeHUx-18" value="&lt;b&gt;&lt;i&gt;&lt;font style=&quot;color: rgb(255, 51, 153);&quot;&gt;TERRAIN&lt;/font&gt;&lt;/i&gt;&lt;/b&gt;" style="swimlane;fontStyle=0;childLayout=stackLayout;horizontal=1;startSize=30;horizontalStack=0;resizeParent=1;resizeParentMax=0;resizeLast=0;collapsible=1;marginBottom=0;whiteSpace=wrap;html=1;" parent="1" vertex="1">
          <mxGeometry x="380" y="340" width="140" height="210" as="geometry" />
        </mxCell>
        <mxCell id="jQ1ti13gLWVN2hdbeHUx-50" value="" style="endArrow=classic;html=1;rounded=0;entryX=1;entryY=0.079;entryDx=0;entryDy=0;entryPerimeter=0;" parent="jQ1ti13gLWVN2hdbeHUx-18" target="jQ1ti13gLWVN2hdbeHUx-38" edge="1">
          <mxGeometry relative="1" as="geometry">
            <mxPoint y="30" as="sourcePoint" />
            <mxPoint x="160" y="30" as="targetPoint" />
          </mxGeometry>
        </mxCell>
        <mxCell id="jQ1ti13gLWVN2hdbeHUx-51" value="Comporte" style="edgeLabel;resizable=0;html=1;;align=center;verticalAlign=middle;" parent="jQ1ti13gLWVN2hdbeHUx-50" connectable="0" vertex="1">
          <mxGeometry relative="1" as="geometry" />
        </mxCell>
        <mxCell id="jQ1ti13gLWVN2hdbeHUx-52" value="1" style="edgeLabel;resizable=0;html=1;;align=left;verticalAlign=bottom;" parent="jQ1ti13gLWVN2hdbeHUx-50" connectable="0" vertex="1">
          <mxGeometry x="-1" relative="1" as="geometry">
            <mxPoint x="-30" y="-10" as="offset" />
          </mxGeometry>
        </mxCell>
        <mxCell id="jQ1ti13gLWVN2hdbeHUx-53" value="Target" style="edgeLabel;resizable=0;html=1;;align=right;verticalAlign=bottom;" parent="jQ1ti13gLWVN2hdbeHUx-50" connectable="0" vertex="1">
          <mxGeometry x="1" relative="1" as="geometry" />
        </mxCell>
        <mxCell id="jQ1ti13gLWVN2hdbeHUx-33" value="+nomTerrain" style="text;strokeColor=none;fillColor=none;align=left;verticalAlign=middle;spacingLeft=4;spacingRight=4;overflow=hidden;points=[[0,0.5],[1,0.5]];portConstraint=eastwest;rotatable=0;whiteSpace=wrap;html=1;" parent="jQ1ti13gLWVN2hdbeHUx-18" vertex="1">
          <mxGeometry y="30" width="140" height="30" as="geometry" />
        </mxCell>
        <mxCell id="jQ1ti13gLWVN2hdbeHUx-19" value="+superficieTerrain" style="text;strokeColor=none;fillColor=none;align=left;verticalAlign=middle;spacingLeft=4;spacingRight=4;overflow=hidden;points=[[0,0.5],[1,0.5]];portConstraint=eastwest;rotatable=0;whiteSpace=wrap;html=1;" parent="jQ1ti13gLWVN2hdbeHUx-18" vertex="1">
          <mxGeometry y="60" width="140" height="30" as="geometry" />
        </mxCell>
        <mxCell id="jQ1ti13gLWVN2hdbeHUx-20" value="+typeSol" style="text;strokeColor=none;fillColor=none;align=left;verticalAlign=middle;spacingLeft=4;spacingRight=4;overflow=hidden;points=[[0,0.5],[1,0.5]];portConstraint=eastwest;rotatable=0;whiteSpace=wrap;html=1;" parent="jQ1ti13gLWVN2hdbeHUx-18" vertex="1">
          <mxGeometry y="90" width="140" height="30" as="geometry" />
        </mxCell>
        <mxCell id="jQ1ti13gLWVN2hdbeHUx-21" value="+humidité" style="text;strokeColor=none;fillColor=none;align=left;verticalAlign=middle;spacingLeft=4;spacingRight=4;overflow=hidden;points=[[0,0.5],[1,0.5]];portConstraint=eastwest;rotatable=0;whiteSpace=wrap;html=1;" parent="jQ1ti13gLWVN2hdbeHUx-18" vertex="1">
          <mxGeometry y="120" width="140" height="30" as="geometry" />
        </mxCell>
        <mxCell id="jQ1ti13gLWVN2hdbeHUx-35" value="+Ensoleillement" style="text;strokeColor=none;fillColor=none;align=left;verticalAlign=middle;spacingLeft=4;spacingRight=4;overflow=hidden;points=[[0,0.5],[1,0.5]];portConstraint=eastwest;rotatable=0;whiteSpace=wrap;html=1;" parent="jQ1ti13gLWVN2hdbeHUx-18" vertex="1">
          <mxGeometry y="150" width="140" height="30" as="geometry" />
        </mxCell>
        <mxCell id="jQ1ti13gLWVN2hdbeHUx-36" value="+capaciteMaxPlantes" style="text;strokeColor=none;fillColor=none;align=left;verticalAlign=middle;spacingLeft=4;spacingRight=4;overflow=hidden;points=[[0,0.5],[1,0.5]];portConstraint=eastwest;rotatable=0;whiteSpace=wrap;html=1;" parent="jQ1ti13gLWVN2hdbeHUx-18" vertex="1">
          <mxGeometry y="180" width="140" height="30" as="geometry" />
        </mxCell>
        <mxCell id="jQ1ti13gLWVN2hdbeHUx-29" value="" style="endArrow=classic;html=1;rounded=0;exitX=0.509;exitY=1.013;exitDx=0;exitDy=0;exitPerimeter=0;entryX=0.5;entryY=0;entryDx=0;entryDy=0;" parent="1" source="jQ1ti13gLWVN2hdbeHUx-11" target="jQ1ti13gLWVN2hdbeHUx-18" edge="1">
          <mxGeometry relative="1" as="geometry">
            <mxPoint x="350" y="330" as="sourcePoint" />
            <mxPoint x="510" y="330" as="targetPoint" />
          </mxGeometry>
        </mxCell>
        <mxCell id="jQ1ti13gLWVN2hdbeHUx-30" value="Possède" style="edgeLabel;resizable=0;html=1;;align=center;verticalAlign=middle;" parent="jQ1ti13gLWVN2hdbeHUx-29" connectable="0" vertex="1">
          <mxGeometry relative="1" as="geometry" />
        </mxCell>
        <mxCell id="jQ1ti13gLWVN2hdbeHUx-31" value="1" style="edgeLabel;resizable=0;html=1;;align=left;verticalAlign=bottom;" parent="jQ1ti13gLWVN2hdbeHUx-29" connectable="0" vertex="1">
          <mxGeometry x="-1" relative="1" as="geometry">
            <mxPoint x="-15" y="20" as="offset" />
          </mxGeometry>
        </mxCell>
        <mxCell id="jQ1ti13gLWVN2hdbeHUx-32" value="1..*" style="edgeLabel;resizable=0;html=1;;align=right;verticalAlign=bottom;" parent="jQ1ti13gLWVN2hdbeHUx-29" connectable="0" vertex="1">
          <mxGeometry x="1" relative="1" as="geometry">
            <mxPoint y="-10" as="offset" />
          </mxGeometry>
        </mxCell>
        <mxCell id="jQ1ti13gLWVN2hdbeHUx-38" value="&lt;b&gt;&lt;font style=&quot;color: rgb(255, 51, 153);&quot;&gt;&lt;i&gt;PLANTE&lt;/i&gt;&lt;/font&gt;&lt;/b&gt;" style="swimlane;fontStyle=0;childLayout=stackLayout;horizontal=1;startSize=30;horizontalStack=0;resizeParent=1;resizeParentMax=0;resizeLast=0;collapsible=1;marginBottom=0;whiteSpace=wrap;html=1;" parent="1" vertex="1">
          <mxGeometry x="50" y="340" width="140" height="420" as="geometry" />
        </mxCell>
        <mxCell id="jQ1ti13gLWVN2hdbeHUx-39" value="+nomPlante" style="text;strokeColor=none;fillColor=none;align=left;verticalAlign=middle;spacingLeft=4;spacingRight=4;overflow=hidden;points=[[0,0.5],[1,0.5]];portConstraint=eastwest;rotatable=0;whiteSpace=wrap;html=1;" parent="jQ1ti13gLWVN2hdbeHUx-38" vertex="1">
          <mxGeometry y="30" width="140" height="30" as="geometry" />
        </mxCell>
        <mxCell id="jQ1ti13gLWVN2hdbeHUx-40" value="+nature ??" style="text;strokeColor=none;fillColor=none;align=left;verticalAlign=middle;spacingLeft=4;spacingRight=4;overflow=hidden;points=[[0,0.5],[1,0.5]];portConstraint=eastwest;rotatable=0;whiteSpace=wrap;html=1;" parent="jQ1ti13gLWVN2hdbeHUx-38" vertex="1">
          <mxGeometry y="60" width="140" height="30" as="geometry" />
        </mxCell>
        <mxCell id="jQ1ti13gLWVN2hdbeHUx-41" value="+solPrefere" style="text;strokeColor=none;fillColor=none;align=left;verticalAlign=middle;spacingLeft=4;spacingRight=4;overflow=hidden;points=[[0,0.5],[1,0.5]];portConstraint=eastwest;rotatable=0;whiteSpace=wrap;html=1;" parent="jQ1ti13gLWVN2hdbeHUx-38" vertex="1">
          <mxGeometry y="90" width="140" height="30" as="geometry" />
        </mxCell>
        <mxCell id="jQ1ti13gLWVN2hdbeHUx-42" value="+espacement" style="text;strokeColor=none;fillColor=none;align=left;verticalAlign=middle;spacingLeft=4;spacingRight=4;overflow=hidden;points=[[0,0.5],[1,0.5]];portConstraint=eastwest;rotatable=0;whiteSpace=wrap;html=1;" parent="jQ1ti13gLWVN2hdbeHUx-38" vertex="1">
          <mxGeometry y="120" width="140" height="30" as="geometry" />
        </mxCell>
        <mxCell id="jQ1ti13gLWVN2hdbeHUx-43" value="+surfaceNecessaire" style="text;strokeColor=none;fillColor=none;align=left;verticalAlign=middle;spacingLeft=4;spacingRight=4;overflow=hidden;points=[[0,0.5],[1,0.5]];portConstraint=eastwest;rotatable=0;whiteSpace=wrap;html=1;" parent="jQ1ti13gLWVN2hdbeHUx-38" vertex="1">
          <mxGeometry y="150" width="140" height="30" as="geometry" />
        </mxCell>
        <mxCell id="jQ1ti13gLWVN2hdbeHUx-44" value="+vitesseCroissance" style="text;strokeColor=none;fillColor=none;align=left;verticalAlign=middle;spacingLeft=4;spacingRight=4;overflow=hidden;points=[[0,0.5],[1,0.5]];portConstraint=eastwest;rotatable=0;whiteSpace=wrap;html=1;" parent="jQ1ti13gLWVN2hdbeHUx-38" vertex="1">
          <mxGeometry y="180" width="140" height="30" as="geometry" />
        </mxCell>
        <mxCell id="jQ1ti13gLWVN2hdbeHUx-45" value="+besoinEau" style="text;strokeColor=none;fillColor=none;align=left;verticalAlign=middle;spacingLeft=4;spacingRight=4;overflow=hidden;points=[[0,0.5],[1,0.5]];portConstraint=eastwest;rotatable=0;whiteSpace=wrap;html=1;" parent="jQ1ti13gLWVN2hdbeHUx-38" vertex="1">
          <mxGeometry y="210" width="140" height="30" as="geometry" />
        </mxCell>
        <mxCell id="jQ1ti13gLWVN2hdbeHUx-56" value="+besoinLumiere" style="text;strokeColor=none;fillColor=none;align=left;verticalAlign=middle;spacingLeft=4;spacingRight=4;overflow=hidden;points=[[0,0.5],[1,0.5]];portConstraint=eastwest;rotatable=0;whiteSpace=wrap;html=1;" parent="jQ1ti13gLWVN2hdbeHUx-38" vertex="1">
          <mxGeometry y="240" width="140" height="30" as="geometry" />
        </mxCell>
        <mxCell id="jQ1ti13gLWVN2hdbeHUx-57" value="+besoinNutriments" style="text;strokeColor=none;fillColor=none;align=left;verticalAlign=middle;spacingLeft=4;spacingRight=4;overflow=hidden;points=[[0,0.5],[1,0.5]];portConstraint=eastwest;rotatable=0;whiteSpace=wrap;html=1;" parent="jQ1ti13gLWVN2hdbeHUx-38" vertex="1">
          <mxGeometry y="270" width="140" height="30" as="geometry" />
        </mxCell>
        <mxCell id="jQ1ti13gLWVN2hdbeHUx-46" value="+températurePreferee" style="text;strokeColor=none;fillColor=none;align=left;verticalAlign=middle;spacingLeft=4;spacingRight=4;overflow=hidden;points=[[0,0.5],[1,0.5]];portConstraint=eastwest;rotatable=0;whiteSpace=wrap;html=1;" parent="jQ1ti13gLWVN2hdbeHUx-38" vertex="1">
          <mxGeometry y="300" width="140" height="30" as="geometry" />
        </mxCell>
        <mxCell id="jQ1ti13gLWVN2hdbeHUx-47" value="+maladie" style="text;strokeColor=none;fillColor=none;align=left;verticalAlign=middle;spacingLeft=4;spacingRight=4;overflow=hidden;points=[[0,0.5],[1,0.5]];portConstraint=eastwest;rotatable=0;whiteSpace=wrap;html=1;" parent="jQ1ti13gLWVN2hdbeHUx-38" vertex="1">
          <mxGeometry y="330" width="140" height="30" as="geometry" />
        </mxCell>
        <mxCell id="jQ1ti13gLWVN2hdbeHUx-48" value="+esperanceDeVie" style="text;strokeColor=none;fillColor=none;align=left;verticalAlign=middle;spacingLeft=4;spacingRight=4;overflow=hidden;points=[[0,0.5],[1,0.5]];portConstraint=eastwest;rotatable=0;whiteSpace=wrap;html=1;" parent="jQ1ti13gLWVN2hdbeHUx-38" vertex="1">
          <mxGeometry y="360" width="140" height="30" as="geometry" />
        </mxCell>
        <mxCell id="jQ1ti13gLWVN2hdbeHUx-49" value="+ProductionMax??" style="text;strokeColor=none;fillColor=none;align=left;verticalAlign=middle;spacingLeft=4;spacingRight=4;overflow=hidden;points=[[0,0.5],[1,0.5]];portConstraint=eastwest;rotatable=0;whiteSpace=wrap;html=1;" parent="jQ1ti13gLWVN2hdbeHUx-38" vertex="1">
          <mxGeometry y="390" width="140" height="30" as="geometry" />
        </mxCell>
        <mxCell id="jQ1ti13gLWVN2hdbeHUx-54" value="1..*" style="edgeLabel;resizable=0;html=1;;align=left;verticalAlign=bottom;" parent="1" connectable="0" vertex="1">
          <mxGeometry x="210" y="360" as="geometry" />
        </mxCell>
        <mxCell id="jQ1ti13gLWVN2hdbeHUx-58" value="Langue de chat&amp;nbsp;&lt;div&gt;Dragibus&lt;/div&gt;&lt;div&gt;&lt;br&gt;&lt;/div&gt;&lt;div&gt;&lt;br&gt;&lt;/div&gt;" style="rounded=1;whiteSpace=wrap;html=1;" parent="1" vertex="1">
          <mxGeometry x="50" y="790" width="120" height="170" as="geometry" />
        </mxCell>
        <mxCell id="jQ1ti13gLWVN2hdbeHUx-59" value="Haribo World&lt;div&gt;&amp;nbsp;(2 terrains)&lt;div&gt;&lt;br&gt;&lt;/div&gt;&lt;div&gt;Un pays basique (blé...)&amp;nbsp;&lt;/div&gt;&lt;div&gt;(3 terrains)&lt;/div&gt;&lt;div&gt;&lt;br&gt;&lt;/div&gt;&lt;div&gt;Un pays &quot;exotique&quot;&lt;/div&gt;&lt;div&gt;(tabac...) un truc fun&lt;br&gt;&lt;div&gt;&lt;br&gt;&lt;/div&gt;&lt;/div&gt;&lt;/div&gt;" style="rounded=1;whiteSpace=wrap;html=1;fillColor=#D5E8D4;" parent="1" vertex="1">
          <mxGeometry x="260" y="30" width="120" height="170" as="geometry" />
        </mxCell>
        <mxCell id="wyzyj5SnGtyJkWKldMfG-1" value="&lt;b&gt;WEBCAM&lt;/b&gt;" style="swimlane;fontStyle=0;childLayout=stackLayout;horizontal=1;startSize=30;horizontalStack=0;resizeParent=1;resizeParentMax=0;resizeLast=0;collapsible=1;marginBottom=0;whiteSpace=wrap;html=1;" vertex="1" parent="1">
          <mxGeometry x="650" y="340" width="140" height="90" as="geometry" />
        </mxCell>
        <mxCell id="wyzyj5SnGtyJkWKldMfG-3" value="Item 2" style="text;strokeColor=none;fillColor=none;align=left;verticalAlign=middle;spacingLeft=4;spacingRight=4;overflow=hidden;points=[[0,0.5],[1,0.5]];portConstraint=eastwest;rotatable=0;whiteSpace=wrap;html=1;" vertex="1" parent="wyzyj5SnGtyJkWKldMfG-1">
          <mxGeometry y="30" width="140" height="30" as="geometry" />
        </mxCell>
        <mxCell id="wyzyj5SnGtyJkWKldMfG-4" value="Item 3" style="text;strokeColor=none;fillColor=none;align=left;verticalAlign=middle;spacingLeft=4;spacingRight=4;overflow=hidden;points=[[0,0.5],[1,0.5]];portConstraint=eastwest;rotatable=0;whiteSpace=wrap;html=1;" vertex="1" parent="wyzyj5SnGtyJkWKldMfG-1">
          <mxGeometry y="60" width="140" height="30" as="geometry" />
        </mxCell>
        <mxCell id="wyzyj5SnGtyJkWKldMfG-5" value="" style="endArrow=classic;html=1;rounded=0;exitX=1.003;exitY=0.109;exitDx=0;exitDy=0;exitPerimeter=0;entryX=0;entryY=0.25;entryDx=0;entryDy=0;" edge="1" parent="1" source="jQ1ti13gLWVN2hdbeHUx-18" target="wyzyj5SnGtyJkWKldMfG-1">
          <mxGeometry relative="1" as="geometry">
            <mxPoint x="520" y="290" as="sourcePoint" />
            <mxPoint x="680" y="290" as="targetPoint" />
          </mxGeometry>
        </mxCell>
        <mxCell id="wyzyj5SnGtyJkWKldMfG-6" value="Comporte" style="edgeLabel;resizable=0;html=1;;align=center;verticalAlign=middle;" connectable="0" vertex="1" parent="wyzyj5SnGtyJkWKldMfG-5">
          <mxGeometry relative="1" as="geometry" />
        </mxCell>
        <mxCell id="wyzyj5SnGtyJkWKldMfG-7" value="1" style="edgeLabel;resizable=0;html=1;;align=left;verticalAlign=bottom;" connectable="0" vertex="1" parent="wyzyj5SnGtyJkWKldMfG-5">
          <mxGeometry x="-1" relative="1" as="geometry" />
        </mxCell>
        <mxCell id="wyzyj5SnGtyJkWKldMfG-8" value="1" style="edgeLabel;resizable=0;html=1;;align=right;verticalAlign=bottom;" connectable="0" vertex="1" parent="wyzyj5SnGtyJkWKldMfG-5">
          <mxGeometry x="1" relative="1" as="geometry" />
        </mxCell>
      </root>
    </mxGraphModel>
  </diagram>
</mxfile>
